PathFileType	4	(X/Y/Z)	C:/Users/opensim2020/Desktop/walking_exp_matlab/subject01_walking15_straight_04.trc	
DataRate	CameraRate	NumFrames	NumMarkers	Units	OrigDataRate	OrigDataStartFrame	OrigNumFrames	
100.00	100.00	7	43	mm	100.00	2172	105	
Frame#	Time	LFHD			RFHD			LBHD			RBHD			C7			T10			CLAV			STRN			RBAK			LSHO			LUPA			LELB			LFRM			LWRA			LWRB			LFIN			RSHO			RUPA			RELB			RFRM			RWRA			RWRB			RFIN			LASI			RASI			LPSI			RPSI			LTHI			LKNE			LTIB			LANK			LHEE			LTOE			RTHI			RKNE			RTIB			RANK			RHEE			RTOE			*39			*40			*41			*42			
		X1	Y1	Z1	X2	Y2	Z2	X3	Y3	Z3	X4	Y4	Z4	X5	Y5	Z5	X6	Y6	Z6	X7	Y7	Z7	X8	Y8	Z8	X9	Y9	Z9	X10	Y10	Z10	X11	Y11	Z11	X12	Y12	Z12	X13	Y13	Z13	X14	Y14	Z14	X15	Y15	Z15	X16	Y16	Z16	X17	Y17	Z17	X18	Y18	Z18	X19	Y19	Z19	X20	Y20	Z20	X21	Y21	Z21	X22	Y22	Z22	X23	Y23	Z23	X24	Y24	Z24	X25	Y25	Z25	X26	Y26	Z26	X27	Y27	Z27	X28	Y28	Z28	X29	Y29	Z29	X30	Y30	Z30	X31	Y31	Z31	X32	Y32	Z32	X33	Y33	Z33	X34	Y34	Z34	X35	Y35	Z35	X36	Y36	Z36	X37	Y37	Z37	X38	Y38	Z38	X39	Y39	Z39	X40	Y40	Z40	X41	Y41	Z41	X42	Y42	Z42	X43	Y43	Z43	

92	0.910	-937.35193	-400.40039	1658.87402	-1030.51379	-464.53693	1665.87903	-1002.72388	-297.44434	1630.01953	-1101.94592	-363.33887	1636.76831	-1041.42554	-259.36234	1432.60461	-1058.86475	-217.70198	1139.37402	-1021.60956	-401.51013	1362.91187	-1017.65942	-441.16183	1207.14697	-1131.26953	-211.31404	1244.08679	-871.46515	-318.05585	1393.94348	-796.50305	-252.66531	1215.68762	-803.87585	-218.81264	1067.39502	-780.57715	-251.43484	955.74646	-781.27625	-332.27084	842.44940	-783.58234	-273.67712	835.40173	-759.38513	-310.51468	765.07037	-1178.27417	-359.02332	1402.15271	-1295.95288	-313.19748	1209.14661	-1308.04138	-327.75705	1081.71228	-1327.27783	-397.02042	976.90216	-1289.34094	-509.67758	897.70154	-1332.39661	-475.76767	881.79034	-1327.68225	-541.17474	827.05029	-939.14783	-385.71313	934.55670	-1156.30090	-399.58594	934.93604	-1002.64563	-203.83890	939.72321	-1146.36719	-213.96617	950.00800	-872.26099	-450.65509	621.56152	-888.57703	-483.08725	490.20947	-897.52844	-417.08783	311.10217	-963.99945	-376.84256	99.63770	-1030.31067	-346.45865	73.75362	-927.98987	-507.35776	51.36738	-1215.11841	-319.45831	601.94348	-1191.55334	-307.01349	442.30771	-1206.07104	-225.37709	284.93585	-1163.53296	-156.19684	89.41286	-1120.33862	-95.96526	60.39218	-1149.20764	-288.03513	33.55016	-1012.84265	-448.04074	1700.17004	-3101.89624	1973.14551	1023.55115	-3140.81030	2012.49512	1022.07642			 
93	0.920	-934.60229	-413.00214	1657.93506	-1027.47656	-477.78583	1665.20239	-1000.62360	-310.47992	1629.02014	-1099.45361	-376.92947	1636.00293	-1040.16052	-272.57248	1431.83105	-1057.17554	-230.94583	1138.53833	-1019.34515	-414.91589	1361.91553	-1015.63086	-454.29303	1206.14587	-1129.77856	-224.91930	1243.46631	-869.37109	-330.94043	1392.82495	-795.32019	-263.86960	1214.76526	-803.69836	-228.91936	1066.95410	-780.44647	-258.14035	954.80682	-780.97479	-335.46808	838.93073	-783.52728	-276.63434	833.77820	-759.37372	-311.30408	762.20270	-1175.88574	-372.87436	1401.82922	-1294.36829	-328.91357	1208.85706	-1306.82654	-344.87927	1081.56396	-1324.56055	-417.88318	978.94928	-1284.88660	-532.82001	904.20807	-1328.03748	-499.98840	886.71393	-1322.27832	-567.30536	834.44580	-937.65845	-399.23349	933.81683	-1154.93420	-412.31454	934.07745	-1000.45789	-217.03516	938.60590	-1144.04260	-226.17007	949.34753	-870.32068	-465.79660	621.41351	-887.78448	-498.52582	490.38544	-894.71521	-442.73929	307.71561	-959.92810	-418.11649	92.61726	-1025.70569	-388.36526	64.57294	-924.41809	-551.37494	53.31806	-1214.14429	-327.23184	602.06592	-1190.89966	-311.72229	442.55930	-1205.46216	-228.19214	286.11169	-1163.55762	-157.12836	91.01875	-1120.56226	-96.59587	62.87738	-1149.25281	-288.16428	33.28667	-1009.78125	-461.00406	1699.25439	-3101.87573	1973.14697	1023.60944	-3140.73218	2012.49890	1022.13177			 
94	0.930	-931.73395	-425.51465	1656.75659	-1024.11523	-490.66309	1664.29675	-998.41443	-323.42618	1627.78210	-1096.85986	-390.46188	1635.06067	-1038.12927	-285.99405	1430.82166	-1055.34802	-244.21455	1137.49609	-1016.97449	-428.36530	1360.86365	-1013.48907	-467.45728	1204.97241	-1128.15735	-238.55452	1242.60095	-867.26245	-343.79660	1391.58020	-793.98096	-275.26144	1213.70374	-803.37018	-238.86765	1066.46814	-780.21960	-265.14102	953.77081	-780.66046	-339.18204	835.69403	-783.30042	-280.23218	832.32184	-759.29425	-312.60498	759.57922	-1173.44531	-386.52182	1401.27222	-1292.58496	-344.69736	1208.48718	-1305.53406	-361.87958	1081.36438	-1321.70544	-438.34225	980.97211	-1280.33435	-555.47644	910.77606	-1323.65784	-523.61475	891.67065	-1316.76416	-592.74219	841.91394	-936.15924	-413.01108	932.83905	-1153.54163	-425.18872	933.12573	-998.01709	-230.39732	937.26886	-1141.42969	-239.22430	948.79327	-868.26581	-480.14575	620.58112	-887.16589	-513.19733	489.94589	-892.22961	-468.18384	305.18875	-954.74768	-458.32147	87.17420	-1020.73303	-430.07813	56.83416	-921.03699	-594.51965	56.79330	-1213.15112	-335.18600	602.20990	-1190.27710	-316.92191	442.53574	-1205.04065	-231.18085	287.54626	-1163.56763	-157.79996	93.16577	-1120.81860	-97.14987	65.68528	-1149.26257	-288.10010	33.32351	-1006.62183	-473.95767	1698.51392	-3101.89624	1973.15234	1023.46777	-3140.83960	2012.42529	1022.05200			 
95	0.940	-928.82062	-437.96204	1655.55945	-1020.76880	-503.71323	1663.30347	-996.09698	-336.39636	1626.42053	-1094.18079	-404.01089	1633.97754	-1035.88989	-299.34918	1429.69080	-1053.26392	-257.54517	1136.24414	-1014.46332	-441.76309	1359.65234	-1011.25677	-480.68384	1203.71680	-1126.43933	-252.19786	1241.57251	-864.88940	-356.83121	1390.15979	-792.53082	-286.76883	1212.40637	-802.96881	-249.28116	1065.89832	-780.02374	-272.56522	952.74628	-780.29559	-343.37900	832.57843	-783.10791	-283.94949	830.85889	-759.24579	-314.48737	757.12134	-1171.00354	-400.37326	1400.65356	-1290.64795	-360.42337	1208.01306	-1304.03967	-378.74158	1081.11328	-1318.79785	-458.31537	982.83557	-1275.72449	-577.26392	917.14789	-1319.25037	-546.54419	896.73053	-1311.22949	-617.42651	849.39441	-934.61127	-427.00266	931.68652	-1152.11267	-438.21442	931.99847	-995.55188	-244.03024	935.90125	-1138.68115	-252.09750	948.16663	-866.34967	-493.78598	619.11816	-886.67816	-527.39844	489.16995	-889.85333	-492.29358	302.96783	-950.00592	-497.96619	82.78596	-1015.41541	-470.94464	50.25174	-917.11902	-636.06647	61.96091	-1212.39612	-343.33731	602.48138	-1189.85034	-322.23367	442.87943	-1204.66467	-234.30264	289.06094	-1163.96790	-159.11862	94.98825	-1120.53760	-98.08159	68.46320	-1149.27478	-288.23471	33.28253	-1003.23578	-486.79742	1697.31396	-3101.94434	1973.18286	1023.45422	-3140.73340	2012.51904	1021.96301			 
96	0.950	-925.75879	-450.42615	1654.25427	-1017.29565	-516.71735	1662.15796	-993.97449	-349.56967	1624.94580	-1091.40833	-417.50943	1632.70947	-1033.13904	-312.85123	1428.31189	-1051.00854	-270.90308	1134.86414	-1011.81378	-455.19843	1358.34680	-1008.91748	-493.89145	1202.36121	-1124.58472	-265.87289	1240.40125	-862.38776	-369.82895	1388.64868	-790.90216	-298.51819	1211.00293	-802.51843	-259.62808	1065.30859	-779.57153	-280.33078	951.66309	-779.90558	-348.00525	829.51471	-782.91223	-289.02191	829.44061	-759.18286	-316.91522	754.83020	-1168.27039	-414.24335	1399.84387	-1288.50757	-376.16193	1207.41919	-1302.33765	-395.46976	1080.74573	-1315.65552	-478.03168	984.76678	-1270.97583	-598.55249	923.35907	-1314.60217	-568.94458	901.65167	-1305.59277	-641.40521	856.76056	-932.56085	-441.40250	930.79700	-1150.62573	-451.36835	930.89191	-992.94501	-257.79294	934.41394	-1135.89990	-265.24875	947.53809	-864.63593	-506.56516	617.11896	-886.28784	-541.43774	488.10498	-887.73547	-515.79254	300.98239	-944.99982	-536.10284	80.19133	-1009.89331	-510.63907	45.32092	-913.29565	-675.58661	68.21599	-1211.44226	-351.76337	602.69641	-1189.35828	-327.72934	443.33102	-1204.43567	-237.81972	290.73264	-1164.06799	-160.32829	97.31332	-1120.74536	-98.55884	72.00364	-1149.38770	-288.34476	33.24760	-999.83374	-499.65039	1696.28906	-3101.97388	1973.02844	1023.86938	-3140.91431	2012.49060	1022.08179			 
97	0.960	-922.60663	-462.76230	1652.76111	-1013.80981	-529.81061	1661.04211	-991.34460	-362.18454	1623.47180	-1088.35144	-431.00024	1631.25891	-1031.06445	-326.06082	1426.88269	-1048.50781	-284.42551	1133.37402	-1009.02319	-468.56717	1356.93115	-1006.39410	-507.21680	1201.00305	-1122.53381	-279.58884	1239.08008	-859.56897	-382.60028	1387.14734	-789.13080	-310.36221	1209.38208	-801.72729	-270.27475	1064.30054	-778.98975	-288.48438	950.50427	-779.74762	-353.23608	826.61047	-782.36505	-294.12137	828.34094	-759.07715	-320.01736	752.57690	-1165.33887	-428.09943	1398.88220	-1286.36975	-391.72665	1206.84595	-1300.48303	-412.03476	1080.32446	-1312.30212	-497.38831	986.70941	-1266.14990	-619.17700	929.32440	-1309.57593	-590.69464	906.22540	-1299.87964	-664.63477	864.02319	-931.39282	-455.43121	928.77039	-1149.02478	-464.70120	929.63831	-990.29108	-271.85486	932.94287	-1132.97229	-278.69696	946.77289	-863.06494	-518.77899	614.55670	-885.87280	-555.63257	486.70593	-885.49231	-538.83282	299.25345	-940.41272	-572.84631	78.78179	-1004.51044	-548.28162	41.79898	-909.22699	-712.70935	75.03527	-1210.73962	-360.47867	603.02789	-1189.07764	-334.19434	443.72040	-1204.08789	-241.71207	292.66135	-1164.14136	-161.81631	99.87347	-1120.98975	-100.02875	75.37377	-1149.59326	-288.49640	33.39322	-996.36151	-512.42249	1694.99561	-3102.00122	1973.04187	1023.35425	-3140.71460	2012.54004	1021.94788			 
98	0.970	-919.34692	-475.26871	1651.32935	-1010.05487	-542.66974	1659.53223	-988.53461	-375.15637	1621.71875	-1085.32739	-444.48523	1629.76611	-1028.10132	-339.23410	1425.45398	-1045.85327	-298.06104	1131.75391	-1006.04419	-482.00296	1355.49573	-1003.77563	-520.56470	1199.54126	-1120.41272	-293.27335	1237.70056	-856.72980	-395.77203	1385.37183	-787.16779	-322.40506	1207.71399	-800.97815	-281.37607	1063.33069	-778.28015	-297.06046	949.22681	-779.26727	-358.97253	823.73694	-782.07953	-299.49231	826.99445	-758.92828	-323.76263	750.49969	-1162.28027	-441.97458	1397.80261	-1284.01770	-407.27094	1206.19141	-1298.53699	-428.32709	1079.78540	-1308.87073	-516.33020	988.39105	-1261.23901	-639.22217	935.03925	-1304.74292	-611.86401	910.69501	-1294.21313	-687.07495	871.04712	-929.74567	-470.08954	927.10156	-1147.45166	-477.40024	927.87628	-987.59998	-286.13129	931.50616	-1130.24304	-292.31039	946.17059	-861.33142	-530.77008	611.72296	-885.28778	-569.83276	485.16891	-883.11072	-561.40314	297.83722	-936.08759	-606.20801	78.51618	-999.90039	-584.42413	39.73666	-904.96381	-747.09406	81.95844	-1209.98242	-369.64011	603.36035	-1188.92847	-341.19550	443.99911	-1203.97363	-246.19034	294.48611	-1164.73450	-163.43964	102.63706	-1121.37451	-101.51254	79.31180	-1149.82666	-288.82953	33.44033	-992.86407	-525.29004	1693.59094	-3101.97339	1973.12170	1023.40442	-3140.84033	2012.48132	1022.03784			 
